<?xml version="1.0" encoding="UTF-8" standalone="no"?>
<!DOCTYPE svg PUBLIC "-//W3C//DTD SVG 1.1//EN" "http://www.w3.org/Graphics/SVG/1.1/DTD/svg11.dtd">
<svg xmlns="http://www.w3.org/2000/svg" version="1.1" viewBox="0 0 512 512">
<g stroke-width="2.00" fill="none" stroke-linecap="butt">
<path stroke="#ac9887" vector-effect="non-scaling-stroke" d="
  M 387.21 227.25
  L 385.75 226.96"
/>
<path stroke="#a57048" vector-effect="non-scaling-stroke" d="
  M 385.75 226.96
  Q 392.65 223.54 392.48 215.52
  C 392.18 201.23 389.93 189.78 379.90 178.57
  Q 366.03 163.07 343.50 163.04
  Q 301.44 162.99 259.40 162.99
  C 253.27 162.99 246.49 159.64 249.91 152.27
  C 251.70 148.41 255.22 148.00 259.45 148.00
  Q 298.01 148.00 336.19 148.00
  A 1.01 1.01 0.0 0 0 337.10 146.56
  Q 313.83 98.23 290.54 49.95
  C 285.84 40.20 281.67 32.85 271.20 28.77
  Q 258.95 24.01 202.08 2.37
  A 1.06 1.01 -89.8 0 1 201.49 1.75
  L 201.25 1.04"
/>
<path stroke="#beab97" vector-effect="non-scaling-stroke" d="
  M 385.75 226.96
  L 360.75 227.04"
/>
<path stroke="#ce9161" vector-effect="non-scaling-stroke" d="
  M 360.75 227.04
  L 341.75 227.04"
/>
<path stroke="#d8a377" vector-effect="non-scaling-stroke" d="
  M 341.75 227.04
  L 152.25 227.04"
/>
<path stroke="#beab97" vector-effect="non-scaling-stroke" d="
  M 152.25 227.04
  L 125.75 227.04"
/>
<path stroke="#a57048" vector-effect="non-scaling-stroke" d="
  M 145.71 150.00
  Q 169.25 100.79 174.80 89.52
  C 176.40 86.28 177.47 83.02 175.41 79.76
  C 172.86 75.75 165.21 75.13 162.97 79.77
  Q 147.40 111.96 131.66 144.16"
/>
<path stroke="#dfcbb6" vector-effect="non-scaling-stroke" d="
  M 152.25 227.04
  Q 150.49 267.58 171.59 301.90"
/>
<path stroke="#d6e1e6" vector-effect="non-scaling-stroke" d="
  M 171.59 301.90
  C 164.76 304.30 152.72 306.43 145.61 303.91
  Q 144.72 303.60 143.96 303.29
  Q 142.27 302.59 142.60 304.40
  Q 143.87 311.25 147.59 317.13
  C 156.46 331.16 171.46 340.29 187.52 343.78
  A 1.00 1.00 0.0 0 1 188.28 345.00
  C 185.64 355.42 186.86 366.97 189.71 377.25"
/>
<path stroke="#9aa2b5" vector-effect="non-scaling-stroke" d="
  M 189.71 377.25
  Q 168.07 385.14 157.43 389.42
  Q 146.70 393.74 138.38 402.56"
/>
<path stroke="#efb180" vector-effect="non-scaling-stroke" d="
  M 341.75 227.04
  Q 339.83 261.66 320.82 290.76"
/>
<path stroke="#d5c1ad" vector-effect="non-scaling-stroke" d="
  M 320.82 290.76
  C 305.45 278.58 284.94 260.76 263.75 269.71"
/>
<path stroke="#f0d9c5" vector-effect="non-scaling-stroke" d="
  M 263.75 269.71
  L 257.03 273.88
  A 1.00 0.99 47.9 0 1 255.89 273.82
  C 240.62 262.04 223.69 267.87 209.50 277.75
  C 196.19 287.03 186.89 296.72 171.59 301.90"
/>
<path stroke="#987f73" vector-effect="non-scaling-stroke" d="
  M 203.1180 254.0247
  A 7.86 7.42 87.9 0 0 210.2450 245.8981
  A 7.86 7.42 87.9 0 0 202.5420 238.3153
  A 7.86 7.42 87.9 0 0 195.4150 246.4419
  A 7.86 7.42 87.9 0 0 203.1180 254.0247"
/>
<path stroke="#987f73" vector-effect="non-scaling-stroke" d="
  M 310.0713 254.0297
  A 7.87 7.43 90.5 0 0 317.5697 246.2248
  A 7.87 7.43 90.5 0 0 310.2087 238.2903
  A 7.87 7.43 90.5 0 0 302.7103 246.0952
  A 7.87 7.43 90.5 0 0 310.0713 254.0297"
/>
<path stroke="#d5b9a0" vector-effect="non-scaling-stroke" d="
  M 360.75 227.04
  Q 362.53 267.46 341.55 301.90"
/>
<path stroke="#cbaf97" vector-effect="non-scaling-stroke" d="
  M 341.55 301.90
  Q 330.29 298.04 320.82 290.76"
/>
<path stroke="#8a92a5" vector-effect="non-scaling-stroke" d="
  M 374.79 402.25
  Q 374.76 402.38 374.69 402.43
  A 0.27 0.14 46.9 0 1 374.41 402.33
  C 362.15 389.31 342.83 384.27 326.17 378.27"
/>
<path stroke="#bbc9cd" vector-effect="non-scaling-stroke" d="
  M 326.17 378.27
  Q 325.13 361.13 320.96 344.50"
/>
<path stroke="#d6e1e6" vector-effect="non-scaling-stroke" d="
  M 320.96 344.50
  L 322.25 343.54"
/>
<path stroke="#bbc9cd" vector-effect="non-scaling-stroke" d="
  M 322.25 343.54
  Q 322.50 344.09 323.23 343.96
  C 344.32 340.13 363.47 326.75 370.05 305.76
  Q 371.03 302.66 368.10 304.08
  Q 366.65 304.78 363.25 305.07
  Q 351.85 306.05 341.55 301.90"
/>
<path stroke="#ccd7dd" vector-effect="non-scaling-stroke" d="
  M 263.75 269.71
  C 282.88 269.13 294.24 286.84 305.44 299.81
  C 313.20 308.80 329.24 318.93 341.52 315.83
  Q 344.35 315.11 343.26 317.82
  Q 336.46 334.74 322.25 343.54"
/>
<path stroke="#ccd7dd" vector-effect="non-scaling-stroke" d="
  M 320.96 344.50
  Q 310.55 350.50 298.69 351.43
  A 1.00 0.99 -5.1 0 0 297.77 352.52
  Q 302.16 399.82 280.91 441.03
  C 270.61 461.01 254.49 481.13 232.25 488.04"
/>
<path stroke="#aab0c4" vector-effect="non-scaling-stroke" d="
  M 232.25 488.04
  Q 212.89 480.21 209.11 460.00
  Q 208.65 457.52 210.23 459.48
  Q 212.56 462.34 216.79 462.55
  Q 220.86 462.76 223.31 460.06
  C 229.69 453.05 226.90 443.49 222.39 436.34
  C 210.31 417.21 197.05 398.89 189.71 377.25"
/>
<path stroke="#80889c" vector-effect="non-scaling-stroke" d="
  M 326.17 378.27
  L 326.24 386.90"
/>
<path stroke="#9098ac" vector-effect="non-scaling-stroke" d="
  M 326.24 386.90
  C 324.21 428.39 298.41 485.95 251.02 490.83
  Q 241.22 491.84 232.25 488.04"
/>
<path stroke="#5e6183" vector-effect="non-scaling-stroke" d="
  M 326.24 386.90
  Q 363.12 398.02 365.01 436.77
  Q 365.75 451.94 364.56 510.97"
/>
<path stroke="#5e6183" vector-effect="non-scaling-stroke" d="
  M 346.21 510.98
  Q 347.02 479.05 346.47 469.82
  C 345.86 459.46 331.37 459.49 331.49 472.09
  Q 331.68 491.53 331.25 510.96"
/>
<path stroke="#5e6183" vector-effect="non-scaling-stroke" d="
  M 181.50 510.96
  Q 181.51 491.50 181.48 472.05
  C 181.46 459.14 166.66 459.39 166.52 470.76
  Q 166.26 490.85 166.75 510.96"
/>
</g>
<path fill="#935d38" d="
  M 204.31 0.00
  L 223.83 -0.05
  Q 261.73 13.78 299.31 28.45
  Q 311.39 33.17 316.98 44.86
  Q 344.99 103.42 373.49 162.39
  A 0.98 0.98 0.0 0 0 374.36 162.95
  C 404.12 163.80 423.93 189.35 420.99 218.51
  C 420.23 226.09 414.40 227.07 407.55 226.98
  Q 397.38 226.85 387.21 227.25
  L 385.75 226.96
  Q 392.65 223.54 392.48 215.52
  C 392.18 201.23 389.93 189.78 379.90 178.57
  Q 366.03 163.07 343.50 163.04
  Q 301.44 162.99 259.40 162.99
  C 253.27 162.99 246.49 159.64 249.91 152.27
  C 251.70 148.41 255.22 148.00 259.45 148.00
  Q 298.01 148.00 336.19 148.00
  A 1.01 1.01 0.0 0 0 337.10 146.56
  Q 313.83 98.23 290.54 49.95
  C 285.84 40.20 281.67 32.85 271.20 28.77
  Q 258.95 24.01 202.08 2.37
  A 1.06 1.01 -89.8 0 1 201.49 1.75
  L 201.25 1.04
  L 204.31 0.00
  Z"
/>
<path fill="#b78358" d="
  M 201.25 1.04
  L 201.49 1.75
  A 1.06 1.01 -89.8 0 0 202.08 2.37
  Q 258.95 24.01 271.20 28.77
  C 281.67 32.85 285.84 40.20 290.54 49.95
  Q 313.83 98.23 337.10 146.56
  A 1.01 1.01 0.0 0 1 336.19 148.00
  Q 298.01 148.00 259.45 148.00
  C 255.22 148.00 251.70 148.41 249.91 152.27
  C 246.49 159.64 253.27 162.99 259.40 162.99
  Q 301.44 162.99 343.50 163.04
  Q 366.03 163.07 379.90 178.57
  C 389.93 189.78 392.18 201.23 392.48 215.52
  Q 392.65 223.54 385.75 226.96
  L 360.75 227.04
  L 341.75 227.04
  L 152.25 227.04
  L 125.75 227.04
  Q 114.49 226.99 103.27 226.96
  C 89.94 226.92 91.27 214.92 92.42 205.46
  C 94.83 185.60 107.59 170.81 126.63 164.90
  C 130.43 163.73 134.73 163.50 138.87 162.96
  A 1.01 1.01 0.0 0 0 139.64 162.41
  L 145.71 150.00
  Q 169.25 100.79 174.80 89.52
  C 176.40 86.28 177.47 83.02 175.41 79.76
  C 172.86 75.75 165.21 75.13 162.97 79.77
  Q 147.40 111.96 131.66 144.16
  C 107.38 131.68 90.06 107.59 86.75 80.09
  Q 86.30 76.43 87.55 72.97
  A 0.99 0.99 0.0 0 1 88.96 72.43
  C 92.23 74.20 95.43 76.32 98.77 77.77
  Q 110.79 83.00 123.14 87.39
  C 132.90 90.86 137.37 89.27 142.21 80.67
  Q 170.17 30.99 176.18 20.69
  Q 184.54 6.33 201.25 1.04
  Z"
/>
<path fill="#935d38" d="
  M 145.71 150.00
  Q 138.19 147.58 131.66 144.16
  Q 147.40 111.96 162.97 79.77
  C 165.21 75.13 172.86 75.75 175.41 79.76
  C 177.47 83.02 176.40 86.28 174.80 89.52
  Q 169.25 100.79 145.71 150.00
  Z"
/>
<path fill="#c5d3d6" d="
  M 152.25 227.04
  Q 150.49 267.58 171.59 301.90
  C 164.76 304.30 152.72 306.43 145.61 303.91
  Q 144.72 303.60 143.96 303.29
  Q 142.27 302.59 142.60 304.40
  Q 143.87 311.25 147.59 317.13
  C 156.46 331.16 171.46 340.29 187.52 343.78
  A 1.00 1.00 0.0 0 1 188.28 345.00
  C 185.64 355.42 186.86 366.97 189.71 377.25
  Q 168.07 385.14 157.43 389.42
  Q 146.70 393.74 138.38 402.56
  Q 136.86 371.31 132.07 340.28
  A 1.00 1.00 0.0 0 0 130.57 339.57
  Q 109.26 352.11 84.88 346.24
  Q 82.99 345.79 84.46 344.51
  Q 108.00 324.14 117.60 294.44
  Q 118.17 292.67 116.39 293.17
  Q 100.51 297.55 85.09 291.94
  A 1.01 1.01 0.0 0 1 84.77 290.24
  Q 114.02 264.59 125.75 227.04
  L 152.25 227.04
  Z"
/>
<path fill="#f9c295" d="
  M 341.75 227.04
  Q 339.83 261.66 320.82 290.76
  C 305.45 278.58 284.94 260.76 263.75 269.71
  L 257.03 273.88
  A 1.00 0.99 47.9 0 1 255.89 273.82
  C 240.62 262.04 223.69 267.87 209.50 277.75
  C 196.19 287.03 186.89 296.72 171.59 301.90
  Q 150.49 267.58 152.25 227.04
  L 341.75 227.04
  Z
  M 203.1180 254.0247
  A 7.86 7.42 87.9 0 0 210.2450 245.8981
  A 7.86 7.42 87.9 0 0 202.5420 238.3153
  A 7.86 7.42 87.9 0 0 195.4150 246.4419
  A 7.86 7.42 87.9 0 0 203.1180 254.0247
  Z
  M 310.0713 254.0297
  A 7.87 7.43 90.5 0 0 317.5697 246.2248
  A 7.87 7.43 90.5 0 0 310.2087 238.2903
  A 7.87 7.43 90.5 0 0 302.7103 246.0952
  A 7.87 7.43 90.5 0 0 310.0713 254.0297
  Z"
/>
<path fill="#e59f6a" d="
  M 360.75 227.04
  Q 362.53 267.46 341.55 301.90
  Q 330.29 298.04 320.82 290.76
  Q 339.83 261.66 341.75 227.04
  L 360.75 227.04
  Z"
/>
<path fill="#c5d3d6" d="
  M 360.75 227.04
  L 385.75 226.96
  L 387.21 227.25
  Q 399.00 264.43 428.18 290.26
  A 1.00 1.00 0.0 0 1 427.86 291.95
  Q 412.44 297.56 396.60 293.17
  Q 394.81 292.67 395.38 294.44
  Q 404.95 324.15 428.54 344.52
  Q 430.01 345.80 428.12 346.25
  Q 403.77 352.10 382.43 339.61
  A 1.00 1.00 0.0 0 0 380.94 340.31
  Q 375.91 371.31 374.79 402.25
  Q 374.76 402.38 374.69 402.43
  A 0.27 0.14 46.9 0 1 374.41 402.33
  C 362.15 389.31 342.83 384.27 326.17 378.27
  Q 325.13 361.13 320.96 344.50
  L 322.25 343.54
  Q 322.50 344.09 323.23 343.96
  C 344.32 340.13 363.47 326.75 370.05 305.76
  Q 371.03 302.66 368.10 304.08
  Q 366.65 304.78 363.25 305.07
  Q 351.85 306.05 341.55 301.90
  Q 362.53 267.46 360.75 227.04
  Z"
/>
<ellipse fill="#363b51" cx="0.00" cy="0.00" transform="translate(202.83,246.17) rotate(87.9)" rx="7.86" ry="7.42"/>
<ellipse fill="#363b51" cx="0.00" cy="0.00" transform="translate(310.14,246.16) rotate(90.5)" rx="7.87" ry="7.43"/>
<path fill="#e6eff5" d="
  M 263.75 269.71
  C 282.88 269.13 294.24 286.84 305.44 299.81
  C 313.20 308.80 329.24 318.93 341.52 315.83
  Q 344.35 315.11 343.26 317.82
  Q 336.46 334.74 322.25 343.54
  L 320.96 344.50
  Q 310.55 350.50 298.69 351.43
  A 1.00 0.99 -5.1 0 0 297.77 352.52
  Q 302.16 399.82 280.91 441.03
  C 270.61 461.01 254.49 481.13 232.25 488.04
  Q 212.89 480.21 209.11 460.00
  Q 208.65 457.52 210.23 459.48
  Q 212.56 462.34 216.79 462.55
  Q 220.86 462.76 223.31 460.06
  C 229.69 453.05 226.90 443.49 222.39 436.34
  C 210.31 417.21 197.05 398.89 189.71 377.25
  C 186.86 366.97 185.64 355.42 188.28 345.00
  A 1.00 1.00 0.0 0 0 187.52 343.78
  C 171.46 340.29 156.46 331.16 147.59 317.13
  Q 143.87 311.25 142.60 304.40
  Q 142.27 302.59 143.96 303.29
  Q 144.72 303.60 145.61 303.91
  C 152.72 306.43 164.76 304.30 171.59 301.90
  C 186.89 296.72 196.19 287.03 209.50 277.75
  C 223.69 267.87 240.62 262.04 255.89 273.82
  A 1.00 0.99 47.9 0 0 257.03 273.88
  L 263.75 269.71
  Z"
/>
<path fill="#b1bfc4" d="
  M 320.82 290.76
  Q 330.29 298.04 341.55 301.90
  Q 351.85 306.05 363.25 305.07
  Q 366.65 304.78 368.10 304.08
  Q 371.03 302.66 370.05 305.76
  C 363.47 326.75 344.32 340.13 323.23 343.96
  Q 322.50 344.09 322.25 343.54
  Q 336.46 334.74 343.26 317.82
  Q 344.35 315.11 341.52 315.83
  C 329.24 318.93 313.20 308.80 305.44 299.81
  C 294.24 286.84 282.88 269.13 263.75 269.71
  C 284.94 260.76 305.45 278.58 320.82 290.76
  Z"
/>
<path fill="#b1bfc4" d="
  M 320.96 344.50
  Q 325.13 361.13 326.17 378.27
  L 326.24 386.90
  C 324.21 428.39 298.41 485.95 251.02 490.83
  Q 241.22 491.84 232.25 488.04
  C 254.49 481.13 270.61 461.01 280.91 441.03
  Q 302.16 399.82 297.77 352.52
  A 1.00 0.99 -5.1 0 1 298.69 351.43
  Q 310.55 350.50 320.96 344.50
  Z"
/>
<path fill="#6e7093" d="
  M 189.71 377.25
  C 197.05 398.89 210.31 417.21 222.39 436.34
  C 226.90 443.49 229.69 453.05 223.31 460.06
  Q 220.86 462.76 216.79 462.55
  Q 212.56 462.34 210.23 459.48
  Q 208.65 457.52 209.11 460.00
  Q 212.89 480.21 232.25 488.04
  Q 241.22 491.84 251.02 490.83
  C 298.41 485.95 324.21 428.39 326.24 386.90
  Q 363.12 398.02 365.01 436.77
  Q 365.75 451.94 364.56 510.97
  L 346.21 510.98
  Q 347.02 479.05 346.47 469.82
  C 345.86 459.46 331.37 459.49 331.49 472.09
  Q 331.68 491.53 331.25 510.96
  L 181.50 510.96
  Q 181.51 491.50 181.48 472.05
  C 181.46 459.14 166.66 459.39 166.52 470.76
  Q 166.26 490.85 166.75 510.96
  Q 135.26 511.13 129.57 510.96
  C 127.05 510.89 126.00 508.54 126.00 506.16
  Q 126.00 470.70 126.22 435.25
  Q 126.32 419.25 135.76 406.45
  Q 137.16 404.56 138.38 402.56
  Q 146.70 393.74 157.43 389.42
  Q 168.07 385.14 189.71 377.25
  Z"
/>
<path fill="#4e5173" d="
  M 326.17 378.27
  C 342.83 384.27 362.15 389.31 374.41 402.33
  A 0.27 0.14 46.9 0 0 374.69 402.43
  Q 374.76 402.38 374.79 402.25
  Q 374.94 403.01 375.42 403.60
  Q 382.78 412.58 385.60 423.57
  Q 386.96 428.90 386.98 438.69
  Q 387.03 473.56 386.98 508.44
  Q 386.98 510.96 384.19 510.97
  L 364.56 510.97
  Q 365.75 451.94 365.01 436.77
  Q 363.12 398.02 326.24 386.90
  L 326.17 378.27
  Z"
/>
<path fill="#4e5173" d="
  M 181.50 510.96
  L 166.75 510.96
  Q 166.26 490.85 166.52 470.76
  C 166.66 459.39 181.46 459.14 181.48 472.05
  Q 181.51 491.50 181.50 510.96
  Z"
/>
<path fill="#4e5173" d="
  M 346.21 510.98
  L 331.25 510.96
  Q 331.68 491.53 331.49 472.09
  C 331.37 459.49 345.86 459.46 346.47 469.82
  Q 347.02 479.05 346.21 510.98
  Z"
/>
</svg>
